<svg xmlns="http://www.w3.org/2000/svg" fill="none" viewBox="0 0 100 100"><g clip-path="url(#a)"><path fill="url(#b)" d="M45.794 2.087 2.09 45.755a5.99 5.99 0 0 0 0 8.488L45.794 97.91a6 6 0 0 0 8.494 0L72.613 79.6a5.38 5.38 0 0 0 0-7.613 5.39 5.39 0 0 0-7.62 0L51.1 85.868a1.426 1.426 0 0 1-2.057 0l-34.9-34.872a1.423 1.423 0 0 1 0-2.056l34.9-34.872a1.426 1.426 0 0 1 2.058 0l13.892 13.88a5.39 5.39 0 0 0 7.62 0 5.38 5.38 0 0 0 0-7.614L54.29 2.027c-2.359-2.297-6.155-2.278-8.496.06"/><path fill="url(#c)" d="M45.794 2.087 2.09 45.755a5.99 5.99 0 0 0 0 8.488L45.794 97.91a6 6 0 0 0 8.494 0L72.613 79.6a5.38 5.38 0 0 0 0-7.613 5.39 5.39 0 0 0-7.62 0L51.1 85.868a1.426 1.426 0 0 1-2.057 0l-34.9-34.872a1.423 1.423 0 0 1 0-2.056l34.9-34.872c1.457-1.255 3.833-3.798 7.322-4.393q3.89-.663 8.504 2.919L54.29 2.027c-2.359-2.297-6.155-2.278-8.496.06"/><path fill="url(#d)" d="M76.843 67.926a5.39 5.39 0 0 0 7.62 0L97.98 54.42a5.99 5.99 0 0 0 0-8.487L84.345 32.358a5.4 5.4 0 0 0-7.627.007 5.38 5.38 0 0 0 0 7.614l9.21 9.201a1.423 1.423 0 0 1 0 2.056l-9.085 9.076a5.38 5.38 0 0 0 0 7.614"/><path fill="url(#e)" d="M50.26 62.008c6.517 0 11.8-5.279 11.8-11.79 0-6.512-5.283-11.79-11.8-11.79s-11.8 5.278-11.8 11.79 5.283 11.79 11.8 11.79"/></g><defs><linearGradient id="b" x1="4587.4" x2="8740.56" y1=".319" y2="2536.59" gradientUnits="userSpaceOnUse"><stop stop-color="#4285EB"/><stop offset="1" stop-color="#2EC7FF"/></linearGradient><linearGradient id="c" x1="5144.46" x2="3093.18" y1=".319" y2="10601.9" gradientUnits="userSpaceOnUse"><stop stop-color="#29CDFF"/><stop offset=".379" stop-color="#148EFF"/><stop offset="1" stop-color="#0A60FF"/></linearGradient><linearGradient id="d" x1="1789.71" x2="-879.322" y1="-471.558" y2="3702.58" gradientUnits="userSpaceOnUse"><stop stop-color="#FA816E"/><stop offset=".415" stop-color="#F74A5C"/><stop offset="1" stop-color="#F51D2C"/></linearGradient><linearGradient id="e" x1="1646.29" x2="758.228" y1="-803.185" y2="2749.21" gradientUnits="userSpaceOnUse"><stop stop-color="#FA8E7D"/><stop offset=".513" stop-color="#F74A5C"/><stop offset="1" stop-color="#F51D2C"/></linearGradient><clipPath id="a"><path fill="#fff" d="M0 0h100v100H0z"/></clipPath></defs></svg>